<svg xmlns="http://www.w3.org/2000/svg" xmlns:xlink="http://www.w3.org/1999/xlink" contentStyleType="text/css" data-diagram-type="DESCRIPTION" height="443px" preserveAspectRatio="none" style="width:889px;height:443px;background:#FFFFFF;" version="1.1" viewBox="0 0 889 443" width="889px" zoomAndPan="magnify"><?plantuml 1.2026.6?><defs/><g><!--cluster chart--><g class="cluster" data-qualified-name="chart" data-source-line="37" id="ent0001"><rect fill="#FCFAF4" height="177" style="stroke:#1978A3;stroke-width:1;" width="832" x="36.3634" y="32"/><text fill="#392A25" font-family="sans-serif" font-size="14" font-weight="700" lengthAdjust="spacing" textLength="279.1523" x="39.3634" y="46.9951">Helm chart &#8212; the Dogu V3 package</text></g><!--cluster rendered--><g class="cluster" data-qualified-name="rendered" data-source-line="51" id="ent0012"><rect fill="#FCFAF4" height="120" style="stroke:#1978A3;stroke-width:1;" width="556" x="169.3634" y="217"/><text fill="#392A25" font-family="sans-serif" font-size="14" font-weight="700" lengthAdjust="spacing" textLength="221.2451" x="172.3634" y="231.9951">Rendered release resources</text></g><!--entity registry--><g class="entity" data-qualified-name="registry" data-source-line="57" id="ent0016"><rect fill="#FFFFFF" height="52.5938" style="stroke:#1978A3;stroke-width:0.5;" width="119.4971" x="39.8634" y="260"/><text fill="#1978A3" font-family="sans-serif" font-size="14" lengthAdjust="spacing" textLength="99.4971" x="49.8634" y="282.9951">Dogu Registry</text><text fill="#1978A3" font-family="sans-serif" font-size="14" lengthAdjust="spacing" textLength="72.0166" x="49.8634" y="299.292">ces-mirror</text></g><!--entity operator--><g class="entity" data-qualified-name="operator" data-source-line="58" id="ent0017"><rect fill="#FFFFFF" height="36.2969" style="stroke:#1978A3;stroke-width:0.5;" width="124.2207" x="743.3634" y="268.5"/><text fill="#1978A3" font-family="sans-serif" font-size="14" lengthAdjust="spacing" textLength="104.2207" x="753.3634" y="291.4951">Dogu Operator</text></g><!--entity images--><g class="entity" data-qualified-name="images" data-source-line="59" id="ent0018"><path d="M135.4823,373.2302 C138.8512,367.6311 143.4842,368.2188 147.2113,372.8182 C151.4119,367.8292 155.6922,366.481 159.6476,373.0813 C162.1516,367.9265 167.2591,367.7633 170.0369,372.8021 C173.8389,366.8777 177.6087,367.8282 181.1907,373.0228 C184.2902,367.3314 189.3796,366.9968 193.1023,372.3508 C196.4237,367.8263 200.9028,367.1168 204.2071,372.3702 C207.3451,367.8258 212.3115,367.6976 214.7756,373.0872 C219.1385,366.2569 223.6009,367.1244 227.8185,373.2338 C231.64,369.0957 235.1537,368.3213 238.4179,373.8452 C241.8558,368.5343 246.8175,368.5508 249.8164,374.2978 C253.8332,369.3853 257.5107,369.47 261.4077,374.4383 C263.7876,369.0954 268.3227,368.0868 271.7403,373.4356 C278.952,374.702 282.0388,380.1199 276.5153,386.164 C283.0281,387.596 285.3166,392.388 280.4789,397.7148 C285.2367,402.7666 283.7556,408.3799 276.5435,409.4006 C281.0856,414.9427 278.4595,420.3072 271.655,421.1139 C268.3954,425.9685 265.0988,426.2136 261.529,421.44 C258.6057,428.6472 252.7075,427.8451 248.8158,422.4141 C246.6279,427.9055 243.4621,429.7452 238.409,425.4658 C234.7012,430.9504 230.5815,430.205 227.0829,425.2391 C224.2473,432.0134 218.9205,431.7458 214.534,426.9162 C212.3864,432.5917 209.3494,433.6624 204.7364,429.3297 C200.1098,432.8471 196.4172,432.1533 193.971,426.7101 C189.8981,432.4648 184.4575,432.0931 180.6933,426.3535 C177.3248,430.6976 172.3404,431.3362 170.0908,425.2194 C164.8575,430.5324 160.9654,429.7755 158.2086,422.8207 C155.2436,427.8419 150.4312,426.5366 148.3748,421.896 C144.7911,428.0301 139.371,427.6527 136.51,421.214 C129.4501,418.2563 130.5,412.1397 135.5168,408.2563 C130.5555,406.1325 128.8361,401.069 133.8094,397.385 C128.8607,393.6698 128.2417,387.9413 134.6484,384.9951 C128.8966,380.924 129.472,376.4675 135.4823,373.2302" fill="#FCFAF4" style="stroke:#181818;stroke-width:0.5;"/><text fill="#392A25" font-family="sans-serif" font-size="14" lengthAdjust="spacing" textLength="80.3223" x="142.3634" y="392.9951">Referenced</text><text fill="#392A25" font-family="sans-serif" font-size="14" lengthAdjust="spacing" textLength="121.6865" x="142.3634" y="409.292">container images</text></g><!--entity metadata--><g class="entity" data-qualified-name="chart.metadata" data-source-line="38" id="ent0002"><rect fill="#23A3DD" height="52.5938" style="stroke:#1978A3;stroke-width:0.5;" width="260" x="44.3634" y="59"/><text fill="#FFFFFF" font-family="sans-serif" font-size="14" lengthAdjust="spacing" textLength="77.3145" x="54.3634" y="81.9951">Chart.yaml</text><text fill="#FFFFFF" font-family="sans-serif" font-size="14" lengthAdjust="spacing" textLength="213.623" x="54.3634" y="98.292">identity + discovery metadata</text></g><!--entity config--><g class="entity" data-qualified-name="chart.config" data-source-line="39" id="ent0003"><rect fill="#23A3DD" height="52.5938" style="stroke:#1978A3;stroke-width:0.5;" width="260" x="322.3634" y="59"/><text fill="#FFFFFF" font-family="sans-serif" font-size="14" lengthAdjust="spacing" textLength="84.376" x="332.3634" y="81.9951">values.yaml</text><text fill="#FFFFFF" font-family="sans-serif" font-size="14" lengthAdjust="spacing" textLength="137.751" x="332.3634" y="98.292">values.schema.json</text></g><!--entity valuesMeta--><g class="entity" data-qualified-name="chart.valuesMeta" data-source-line="40" id="ent0004"><rect fill="#23A3DD" height="52.5938" style="stroke:#1978A3;stroke-width:0.5;" width="260" x="600.3634" y="59"/><text fill="#FFFFFF" font-family="sans-serif" font-size="14" lengthAdjust="spacing" textLength="197.5449" x="610.3634" y="81.9951">dogu-values-metadata.yaml</text><text fill="#FFFFFF" font-family="sans-serif" font-size="14" lengthAdjust="spacing" textLength="140.8887" x="610.3634" y="98.292">CES config mapping</text></g><!--entity imageMeta--><g class="entity" data-qualified-name="chart.imageMeta" data-source-line="41" id="ent0005"><rect fill="#23A3DD" height="52.5938" style="stroke:#1978A3;stroke-width:0.5;" width="260" x="44.3634" y="148"/><text fill="#FFFFFF" font-family="sans-serif" font-size="14" lengthAdjust="spacing" textLength="143.1309" x="54.3634" y="170.9951">chart-patch-tpl.yaml</text><text fill="#FFFFFF" font-family="sans-serif" font-size="14" lengthAdjust="spacing" textLength="193.6006" x="54.3634" y="187.292">container image references</text></g><!--entity upgradeMeta--><g class="entity" data-qualified-name="chart.upgradeMeta" data-source-line="42" id="ent0006"><rect fill="#23A3DD" height="52.5938" style="stroke:#1978A3;stroke-width:0.5;" width="260" x="600.3634" y="148"/><text fill="#FFFFFF" font-family="sans-serif" font-size="14" lengthAdjust="spacing" textLength="137.5869" x="610.3634" y="170.9951">dogu-upgrade.yaml</text><text fill="#FFFFFF" font-family="sans-serif" font-size="14" lengthAdjust="spacing" textLength="150.5615" x="610.3634" y="187.292">upgrade coordination</text></g><!--entity templates--><g class="entity" data-qualified-name="chart.templates" data-source-line="43" id="ent0007"><rect fill="#23A3DD" height="52.5938" style="stroke:#1978A3;stroke-width:0.5;" width="260" x="322.3634" y="148"/><text fill="#FFFFFF" font-family="sans-serif" font-size="14" lengthAdjust="spacing" textLength="75.209" x="332.3634" y="170.9951">templates/</text><text fill="#FFFFFF" font-family="sans-serif" font-size="14" lengthAdjust="spacing" textLength="201.4277" x="332.3634" y="187.292">render workloads + CES CRs</text></g><!--entity k8s--><g class="entity" data-qualified-name="rendered.k8s" data-source-line="52" id="ent0013"><rect fill="#23A3DD" height="52.5938" style="stroke:#1978A3;stroke-width:0.5;" width="260" x="177.3634" y="260"/><text fill="#FFFFFF" font-family="sans-serif" font-size="14" lengthAdjust="spacing" textLength="153.1045" x="187.3634" y="282.9951">Kubernetes resources</text><text fill="#FFFFFF" font-family="sans-serif" font-size="14" lengthAdjust="spacing" textLength="191.9189" x="187.3634" y="299.292">workloads &#183; Services &#183; PVCs</text></g><!--entity ces--><g class="entity" data-qualified-name="rendered.ces" data-source-line="53" id="ent0014"><rect fill="#23A3DD" height="85.1875" style="stroke:#1978A3;stroke-width:0.5;" width="262.2178" x="455.3634" y="244"/><text fill="#FFFFFF" font-family="sans-serif" font-size="14" lengthAdjust="spacing" textLength="181.7744" x="465.3634" y="266.9951">CES integration resources</text><text fill="#FFFFFF" font-family="sans-serif" font-size="14" lengthAdjust="spacing" textLength="203.7998" x="465.3634" y="283.292">AuthRegistration &#183; Exposition</text><text fill="#FFFFFF" font-family="sans-serif" font-size="14" lengthAdjust="spacing" textLength="242.2178" x="465.3634" y="299.5889">ServiceAccountRequest / Producer</text><text fill="#FFFFFF" font-family="sans-serif" font-size="14" lengthAdjust="spacing" textLength="112.752" x="465.3634" y="315.8857">WarpMenuEntry</text></g><g class="link" data-entity-1="ent0003" data-entity-2="ent0007" data-link-type="dependency" id="lnk19"><polygon fill="#00426B" points="452.3634,147.7503,456.3634,138.7503,452.3634,142.7503,448.3634,138.7503,452.3634,147.7503" style="stroke:#00426B;stroke-width:1;stroke-linejoin:miter;stroke-miterlimit:10;"/><path d="M452.3634,112.1323 C452.3634,123.3598 452.3634,131.5094 452.3634,142.7503" fill="none" style="stroke:#00426B;stroke-width:1;"/></g><g class="link" data-entity-1="ent0007" data-entity-2="ent0013" data-link-type="dependency" id="lnk20"><polygon fill="#00426B" points="341.0623,259.9354,350.65,257.6826,345.0457,256.9134,345.8149,251.3091,341.0623,259.9354" style="stroke:#00426B;stroke-width:1;stroke-linejoin:miter;stroke-miterlimit:10;"/><path d="M418.733,201.0127 C395.3916,218.72 368.4021,239.1948 345.0457,256.9134" fill="none" style="stroke:#00426B;stroke-width:1;"/></g><g class="link" data-entity-1="ent0007" data-entity-2="ent0014" data-link-type="dependency" id="lnk21"><polygon fill="#00426B" points="535.7754,243.9725,531.357,235.1704,531.9107,240.8,526.281,241.3538,535.7754,243.9725" style="stroke:#00426B;stroke-width:1;stroke-linejoin:miter;stroke-miterlimit:10;"/><path d="M483.4425,201.0127 C498.9827,213.7696 514.3187,226.3588 531.9107,240.8" fill="none" style="stroke:#00426B;stroke-width:1;"/></g><g class="link" data-entity-1="ent0013" data-entity-2="ent0018" data-link-type="dependency" id="lnk22"><polygon fill="#00426B" points="233.0178,364.7051,242.1418,360.9968,236.486,361.1035,236.3793,355.4476,233.0178,364.7051" style="stroke:#00426B;stroke-width:1;stroke-linejoin:miter;stroke-miterlimit:10;"/><path d="M282.7169,313.0945 C267.8203,328.564 252.2051,344.7797 236.486,361.1035" fill="none" style="stroke:#00426B;stroke-width:1;"/></g><g class="link" data-entity-1="ent0002" data-entity-2="ent0016" data-link-type="dependency" id="lnk23"><polygon fill="#00426B" points="70.037,259.8636,66.5995,250.6341,66.5393,256.2906,60.8828,256.2304,70.037,259.8636" style="stroke:#00426B;stroke-width:1;stroke-linejoin:miter;stroke-miterlimit:10;"/><path d="M77.1713,112.0183 C60.6155,120.7415 45.5139,132.4093 35.3634,148 C20.5712,170.7201 26.1096,183.5171 35.3634,209 C42.3969,228.3687 53.2229,242.6877 66.5393,256.2906" fill="none" style="stroke:#00426B;stroke-width:1;"/></g><g class="link" data-entity-1="ent0005" data-entity-2="ent0016" data-link-type="dependency" id="lnk24"><polygon fill="#00426B" points="116.9239,259.7446,125.2988,254.5619,119.7406,255.6135,118.689,250.0552,116.9239,259.7446" style="stroke:#00426B;stroke-width:1;stroke-linejoin:miter;stroke-miterlimit:10;"/><path d="M156.9684,201.0127 C144.9385,218.6565 131.8062,237.9173 119.7406,255.6135" fill="none" style="stroke:#00426B;stroke-width:1;"/></g><g class="link" data-entity-1="ent0016" data-entity-2="ent0018" data-link-type="dependency" id="lnk25"><polygon fill="#00426B" points="173.7091,364.7051,170.3476,355.4476,170.2408,361.1035,164.585,360.9968,173.7091,364.7051" style="stroke:#00426B;stroke-width:1;stroke-linejoin:miter;stroke-miterlimit:10;"/><path d="M124.01,313.0945 C138.9065,328.564 154.5217,344.7797 170.2408,361.1035" fill="none" style="stroke:#00426B;stroke-width:1;"/></g><g class="link" data-entity-1="ent0004" data-entity-2="ent0017" data-link-type="dependency" id="lnk26"><polygon fill="#00426B" points="825.8782,268.4275,835.1996,265.2476,829.5469,265.0304,829.7641,259.3777,825.8782,268.4275" style="stroke:#00426B;stroke-width:1;stroke-linejoin:miter;stroke-miterlimit:10;"/><path d="M827.5555,112.0183 C844.1113,120.7415 859.2129,132.4093 869.3634,148 C884.1556,170.7201 878.6173,183.5171 869.3634,209 C860.734,232.7632 844.7999,250.9065 829.5469,265.0304" fill="none" style="stroke:#00426B;stroke-width:1;"/></g><g class="link" data-entity-1="ent0006" data-entity-2="ent0017" data-link-type="dependency" id="lnk27"><polygon fill="#00426B" points="793.6653,268.3427,791.9001,258.6533,790.8486,264.2116,785.2903,263.16,793.6653,268.3427" style="stroke:#00426B;stroke-width:1;stroke-linejoin:miter;stroke-miterlimit:10;"/><path d="M747.7584,201.0127 C761.8654,221.7029 778.545,246.1664 790.8486,264.2116" fill="none" style="stroke:#00426B;stroke-width:1;"/></g><?plantuml-src dLLBRjim4Dth56ooB9ouTjecW670SH84Q8C63f0iwYuOQIonfaYL72LLYm0zHE_IVO_IatGeKJOTvLDqPyqC7zzxCqE_A0nFSyuahtI9pEQ0NF78BeKgkE4vk-RnCZMwLCbKIstORIOGWdm22rvAFD4AcuBjuS5WCdWTb4oCqRS-sU_l3TuS1aa3CTsOIZZK9W7ZoruTlDsV31yikyTdUp2S38-E7YgTDLL6WM7zeC1cFD6tGgLimQM5A1C9C8jWG6DLG8IwOAZPjKRK950uGA5L58qiLXB6aT4QsVU8iJDkKg7Oe1_THQjhwypQZyOmndOSww9ECjPHSJ8zcPpirRckbIxwNYZODCT5JxKHtwYUouaKgSf18PEmG4hUkJkvGR7WCVfhpuGIUPbVYGGpDjZh_nE6hSYR_17YhReDsW71_w1z5urslT61gLkd87CMPwI8_Vdnas46x4Yd9RiSie98yHIs6BU-OZIgtHwFQze1ojIbTogUoxcYjYiKMB6Nr6GRwnim5NCBa73aDLZxGNYja-Fn9k0DboLOZ-W_R9n1pdS-MwqQJbejHFe4I492UitXNdkdXvmUNxJdSruKDBKrP5Dy1azogxte5HpZh8U5z8YnCrwufH0vkKO75ZJwAWPR8zV1Pu1hlcMH6fw0H_LVn9NsM2ZkDgR6yubd46d22iaHxEvS4Hbw2TYjDakfUMAfFyw5wQmXk2hTX2EyLRjw7scdgRkVZ4Wpx8szWrJYhUmKhFsaehK5dRf03HM6sZgbAvuqqU4Wpsfva91y2Tow1bXTcjP_qwOVdU5tvJNGe-OSM1sTgxLTlt-n2p0tWiBkz_dbj45UxjidEk0i5Wg15BdUXT2J4hCPfCAYpn7gyTT2M-6-vihVDebZUXXm1b_8IcIxxDpef8p1pDKLDyKPgF9OeQcQdO0E6SUlsxcEV_NMUphLtCrjBnVq5sEyVKs2m9k7Yw3l7_vG00dn1xJ_20_4KfU9wvJVZAIpDS6ksDNh7RNJjT7zzRowE8cy5t4AQ-dqkm6CelKaKx2L50Lp6OPNaaE4u85muLPbj36oGU8l?></g></svg>